# Blender 4.1.1
# www.blender.org
mtllib grass_slab.mtl
o Cube
o Cube.001
v 10.000000 0.300000 -10.000000
v 10.000000 0.300000 10.000000
v -10.000000 0.300000 -10.000000
v -10.000000 0.300000 10.000000
v 10.000000 0.525723 -10.000000
v 10.000000 0.525723 10.000000
v -10.000000 0.525723 -10.000000
v -10.000000 0.525723 10.000000
vn -0.0000 -0.0000 1.0000
vn -0.0000 1.0000 -0.0000
vn -1.0000 -0.0000 -0.0000
vn 1.0000 -0.0000 -0.0000
vn -0.0000 -0.0000 -1.0000
vt 0.625000 1.000000
vt 0.625000 0.750000
vt 0.625000 0.500000
vt 0.875000 0.500000
vt 0.875000 0.750000
vt 0.625000 0.250000
vt 0.625000 0.000000
s 0
usemtl Erba
f 4/1/1 2/2/1 6/2/1 8/1/1
f 5/3/2 7/4/2 8/5/2 6/2/2
f 3/6/3 4/7/3 8/7/3 7/6/3
f 2/2/4 1/3/4 5/3/4 6/2/4
f 1/3/5 3/6/5 7/6/5 5/3/5
o Cube.002
v 10.000000 0.300000 -10.000000
v 10.000000 -0.300000 -10.000000
v 10.000000 0.300000 10.000000
v 10.000000 -0.300000 10.000000
v -10.000000 0.300000 -10.000000
v -10.000000 -0.300000 -10.000000
v -10.000000 0.300000 10.000000
v -10.000000 -0.300000 10.000000
vn -0.0000 -0.0000 1.0000
vn -1.0000 -0.0000 -0.0000
vn -0.0000 -1.0000 -0.0000
vn 1.0000 -0.0000 -0.0000
vn -0.0000 -0.0000 -1.0000
vt 0.375000 0.750000
vt 0.625000 0.750000
vt 0.625000 1.000000
vt 0.375000 1.000000
vt 0.375000 0.000000
vt 0.625000 0.000000
vt 0.625000 0.250000
vt 0.375000 0.250000
vt 0.125000 0.500000
vt 0.375000 0.500000
vt 0.125000 0.750000
vt 0.625000 0.500000
s 0
usemtl Terra
f 12/8/6 11/9/6 15/10/6 16/11/6
f 16/12/7 15/13/7 13/14/7 14/15/7
f 14/16/8 10/17/8 12/8/8 16/18/8
f 10/17/9 9/19/9 11/9/9 12/8/9
f 14/15/10 13/14/10 9/19/10 10/17/10
