# Blender 4.1.1
# www.blender.org
mtllib albero1.mtl
o SpruceTree1.001
v 0.422890 8.955780 -0.886666
v -0.154616 8.164732 -1.720339
v -0.344458 8.984224 -0.443334
v 1.190237 8.927336 -0.443334
v -0.206524 7.530555 -0.945235
v 1.211137 7.128547 -1.144152
v -1.089027 5.027212 -1.860319
v -1.061101 7.217372 -0.168703
v -0.498016 6.798393 1.144150
v -2.007956 5.553437 0.267592
v -0.520296 6.890314 -0.500001
v -0.625860 5.502205 2.127911
v 1.675165 5.088031 1.860318
v -0.520296 6.890314 0.499999
v 0.345135 6.858233 0.999999
v -1.223541 3.467919 1.252048
v 0.588635 3.821131 1.887694
v -1.597694 2.013299 2.392199
v -1.580180 3.858799 -0.635646
v -0.124642 4.142106 -1.520075
v -2.787862 2.057417 -0.329351
v -1.027632 1.495399 -2.721551
v -0.498583 2.613211 -0.056711
v -0.293649 2.605615 0.411909
v -0.195491 2.601976 -0.468621
v 0.312535 2.583145 -0.411911
v 0.517469 2.575548 0.056710
v 1.922768 1.882801 -2.392200
v 1.687535 3.738323 -1.252049
v 3.112936 1.838683 0.329351
v 2.044174 3.441036 0.635645
v 1.352705 1.571976 2.721550
v 0.214376 2.586783 0.468620
v 1.210567 6.826152 0.499999
v 2.594095 5.382846 -0.267594
v 1.210567 6.826152 -0.500001
v 1.211999 5.434078 -2.127912
v 0.345135 6.858233 -1.000001
v 1.774222 6.803159 0.168701
v 0.919645 7.153379 1.312852
v 1.190237 8.927336 0.443331
v 2.180347 8.531967 0.371319
v 0.422890 8.955780 0.886663
v 0.973557 8.273464 1.720337
v -0.344458 8.984224 0.443331
v -0.797320 8.642344 1.349016
v -1.361406 8.663254 -0.371321
v -0.291133 9.595732 0.465996
v 0.538923 12.086031 -0.000002
v 0.488303 9.970783 0.884425
v -0.317995 10.026657 -0.418430
v 0.538923 12.086031 -0.000002
v 0.434579 10.371851 -0.516808
v 0.538923 12.086031 -0.000002
v 1.214015 9.989908 -0.465999
v 0.538923 12.086031 -0.000002
v 1.240877 9.652575 0.418427
v 1.616261 8.552876 -1.349019
v 0.538923 12.086031 -0.000002
v 0.538923 12.086031 -0.000002
vn -0.0624 -0.8266 0.5593
vn 0.2870 -0.7863 0.5472
vn -0.6110 0.2059 -0.7644
vn 0.1478 0.2002 -0.9685
vn -0.1130 0.4291 -0.8962
vn -0.7706 0.3957 -0.4996
vn -0.9182 0.2730 0.2871
vn -0.7043 0.4983 0.5056
vn 0.6115 -0.5798 0.5384
vn 0.6589 -0.6758 -0.3305
vn 0.0308 0.4191 0.9074
vn -0.0310 -0.6259 -0.7792
vn -0.4033 0.2520 0.8797
vn -0.9492 0.2741 0.1543
vn -0.1694 0.4496 0.8770
vn -0.7911 0.5243 0.3150
vn -0.5167 0.2316 -0.8242
vn -0.6264 0.4283 -0.6512
vn 0.2107 -0.9157 0.3423
vn 0.2480 -0.9608 -0.1240
vn -0.0370 -0.9993 -0.0000
vn 0.0528 -0.9149 0.4002
vn -0.2820 -0.9533 0.1079
vn 0.8636 0.4334 -0.2577
vn 0.1129 0.4452 -0.8883
vn 0.6902 0.4101 0.5962
vn -0.2527 -0.9289 -0.2706
vn -0.0840 -0.9305 -0.3565
vn 0.9734 0.2065 -0.0990
vn 0.6122 0.2235 0.7584
vn -0.6541 -0.5668 -0.5008
vn -0.7073 -0.6248 0.3306
vn 0.0150 -0.6152 0.7882
vn 0.3005 0.2046 -0.9316
vn 0.7981 0.4111 -0.4405
vn 0.8151 0.3823 0.4353
vn 0.9558 0.2008 -0.2150
vn 0.7081 0.2208 0.6708
vn -0.4295 -0.8990 0.0857
vn -0.3353 -0.8143 -0.4738
vn 0.0284 -0.8607 -0.5084
vn -0.2947 0.2363 0.9259
vn 0.3617 -0.9284 -0.0857
vn -0.7447 0.6083 0.2745
vn -0.2524 0.5279 0.8109
vn -0.9190 0.3428 0.1949
vn -0.5648 0.3298 0.7565
vn -0.2550 0.2933 -0.9214
vn -0.5020 0.4656 -0.7289
vn 0.1948 0.2722 -0.9423
vn 0.1415 0.4864 -0.8622
vn 0.9538 0.2891 0.0813
vn 0.8588 0.4965 -0.1265
vn 0.5906 0.2992 0.7494
vn 0.6030 0.4827 0.6351
vn -0.0000 1.0000 -0.0000
vt 0.000000 0.000000
vt 1.000000 0.000000
vt 1.000000 1.000000
vt 0.000000 1.000000
vt 0.500000 1.000000
vt 0.933013 0.750000
vt 0.933013 0.250000
vt 0.500000 0.000000
vt 0.066987 0.250000
vt 0.066987 0.750000
s 1
usemtl foglie.003
f 1/1/1 2/2/1 58/3/1 4/4/1
f 3/1/2 47/2/2 2/3/2 1/4/2
f 3/1/3 1/2/3 5/3/3 8/4/3
f 1/1/4 4/2/4 6/3/4 5/4/4
f 5/1/5 6/2/5 37/3/5 7/4/5
f 8/1/6 5/2/6 7/3/6 10/4/6
f 45/1/7 3/2/7 8/3/7 9/4/7
f 9/1/8 8/2/8 10/3/8 12/4/8
f 10/1/9 7/2/9 38/3/9 11/4/9
f 12/1/10 10/2/10 11/3/10 14/4/10
f 40/1/11 9/2/11 12/3/11 13/4/11
f 13/1/12 12/2/12 14/3/12 15/4/12
f 15/1/13 14/2/13 16/3/13 17/4/13
f 14/1/14 11/2/14 19/3/14 16/4/14
f 17/1/15 16/2/15 18/3/15 32/4/15
f 16/1/16 19/2/16 21/3/16 18/4/16
f 11/1/17 38/2/17 20/3/17 19/4/17
f 19/1/18 20/2/18 22/3/18 21/4/18
f 25/1/19 23/2/19 21/3/19 22/4/19
f 23/1/20 24/2/20 18/3/20 21/4/20
f 25/5/21 26/6/21 27/7/21 33/8/21 24/9/21 23/10/21
f 26/1/22 25/2/22 22/3/22 28/4/22
f 27/1/23 26/2/23 28/3/23 30/4/23
f 29/1/24 31/2/24 30/3/24 28/4/24
f 20/1/25 29/2/25 28/3/25 22/4/25
f 31/1/26 17/2/26 32/3/26 30/4/26
f 33/1/27 27/2/27 30/3/27 32/4/27
f 24/1/28 33/2/28 32/3/28 18/4/28
f 36/1/29 34/2/29 31/3/29 29/4/29
f 34/1/30 15/2/30 17/3/30 31/4/30
f 35/1/31 13/2/31 15/3/31 34/4/31
f 37/1/32 35/2/32 34/3/32 36/4/32
f 7/1/33 37/2/33 36/3/33 38/4/33
f 38/1/34 36/2/34 29/3/34 20/4/34
f 6/1/35 39/2/35 35/3/35 37/4/35
f 39/1/36 40/2/36 13/3/36 35/4/36
f 4/1/37 41/2/37 39/3/37 6/4/37
f 41/1/38 43/2/38 40/3/38 39/4/38
f 4/1/39 58/2/39 42/3/39 41/4/39
f 41/1/40 42/2/40 44/3/40 43/4/40
f 43/1/41 44/2/41 46/3/41 45/4/41
f 43/1/42 45/2/42 9/3/42 40/4/42
f 45/1/43 46/2/43 47/3/43 3/4/43
f 46/1/44 48/2/44 51/3/44 47/4/44
f 44/1/45 50/2/45 48/3/45 46/4/45
f 48/1/46 49/2/46 52/3/46 51/4/46
f 50/1/47 60/2/47 49/3/47 48/4/47
f 51/1/48 52/2/48 54/3/48 53/4/48
f 47/1/49 51/2/49 53/3/49 2/4/49
f 53/1/50 54/2/50 56/3/50 55/4/50
f 2/1/51 53/2/51 55/3/51 58/4/51
f 55/1/52 56/2/52 59/3/52 57/4/52
f 58/1/53 55/2/53 57/3/53 42/4/53
f 57/1/54 59/2/54 60/3/54 50/4/54
f 42/1/55 57/2/55 50/3/55 44/4/55
f 56/5/56 54/6/56 52/7/56 49/8/56 60/9/56 59/10/56
o SpruceTree1
v 0.787138 0.005901 -0.130833
v 0.525628 0.862282 -0.166840
v 0.377814 0.005901 0.691241
v 0.318414 0.896411 0.418690
v 0.016732 2.631964 -0.392766
v 0.388858 2.631964 -0.122401
v 0.246718 2.631964 0.315058
v -0.213254 2.631964 0.315058
v -0.355393 2.631964 -0.122401
v -0.126865 5.226774 -0.295836
v 0.252297 5.226774 -0.229017
v 0.305916 5.226774 0.152236
v -0.040108 5.226774 0.321044
v -0.307582 5.226774 0.044120
v 0.530361 10.571625 -0.034505
v 0.418714 10.571625 -0.122146
v 0.481511 10.571625 0.098759
v 0.339673 10.571625 0.093481
v 0.300862 10.571625 -0.043046
v -0.400917 1.079222 0.322894
v -0.482123 0.000569 0.616122
v 0.131788 0.005901 -0.774159
v 0.006283 0.816662 -0.550455
v -0.513402 1.060235 -0.238139
v -0.698718 0.009068 -0.370113
vn 0.6354 0.2305 -0.7370
vn -0.0727 0.2762 0.9584
vn -0.0753 0.0364 0.9965
vn 0.0004 -1.0000 -0.0026
vn -0.7410 0.0204 -0.6712
vn -0.9647 0.0983 0.2441
vn 0.9452 0.0616 0.3207
vn -0.5263 0.0944 -0.8450
vn 0.5880 0.0662 -0.8061
vn -0.8002 0.0914 0.5928
vn 0.2049 0.0204 0.9786
vn 0.4094 0.0204 -0.9121
vn -0.8673 0.0204 0.4973
vn 0.9940 0.0204 0.1075
vn -0.0000 1.0000 -0.0000
vn 0.9991 -0.0423 -0.0093
vn -0.8110 0.0922 -0.5778
vn 0.3178 0.0084 0.9481
vn 0.3002 0.0097 -0.9538
vn 0.8930 0.2321 0.3855
vn -0.9691 0.1368 0.2052
vn -0.4346 0.1824 -0.8820
vt 0.000000 0.000000
vt 1.000000 0.000000
vt 1.000000 1.000000
vt 0.000000 1.000000
vt 0.500000 1.000000
vt 0.975528 0.654508
vt 0.793893 0.095491
vt 0.206107 0.095492
vt 0.024472 0.654509
s 1
usemtl tronco.004
f 82/11/57 83/12/57 62/13/57 61/14/57
f 63/11/58 64/12/58 80/13/58 81/14/58
f 80/11/59 64/12/59 67/13/59 68/14/59
f 82/15/60 61/16/60 63/17/60 81/18/60 85/19/60
f 65/11/61 69/12/61 74/13/61 70/14/61
f 84/11/62 80/12/62 68/13/62 69/14/62
f 64/11/63 62/12/63 66/13/63 67/14/63
f 83/11/64 84/12/64 69/13/64 65/14/64
f 62/11/65 83/12/65 65/13/65 66/14/65
f 74/11/66 73/12/66 78/13/66 79/14/66
f 68/11/67 67/12/67 72/13/67 73/14/67
f 66/11/68 65/12/68 70/13/68 71/14/68
f 69/11/69 68/12/69 73/13/69 74/14/69
f 67/11/70 66/12/70 71/13/70 72/14/70
f 75/15/71 76/16/71 79/17/71 78/18/71 77/19/71
f 72/11/72 71/12/72 75/13/72 77/14/72
f 70/11/73 74/12/73 79/13/73 76/14/73
f 73/11/74 72/12/74 77/13/74 78/14/74
f 71/11/75 70/12/75 76/13/75 75/14/75
f 61/11/76 62/12/76 64/13/76 63/14/76
f 80/11/77 84/12/77 85/13/77 81/14/77
f 83/11/78 82/12/78 85/13/78 84/14/78
