# Blender 4.1.1
# www.blender.org
mtllib roccia1.mtl
o BigRock5
v -4.555320 -2.947909 3.768645
v -4.417947 2.840031 2.780291
v -5.266019 -0.457267 -6.931881
v -4.351232 6.859259 -5.104098
v 5.115386 -2.947600 5.999421
v 5.521301 6.962504 4.477764
v 7.700518 -1.203917 -7.347803
v 5.899490 8.964411 -6.653534
v 2.997093 -1.250204 -7.719495
v -2.524879 -0.547185 -7.296633
v -1.339462 7.658082 -5.258754
v 2.817672 9.013364 -5.540356
v -1.271198 -2.983479 5.592994
v 2.736826 -2.985404 6.129372
v 3.173337 6.346830 4.166210
v -1.074025 3.694539 3.953725
v -4.713651 -0.913195 4.320872
v -5.159161 0.862606 2.695496
v -4.670408 5.605969 -6.013335
v -5.052312 3.148023 -6.700217
v 7.504057 6.517392 -8.245952
v 9.004474 3.405697 -8.334570
v 6.807421 3.375956 5.703794
v 6.482591 -0.301237 6.224225
v 4.378723 2.495562 7.074069
v 4.201290 -0.495183 7.648137
v -0.928517 1.400160 5.547644
v -0.834569 -0.786618 6.819293
v -1.233567 6.266691 -6.196473
v -1.903263 3.329884 -7.065225
v 3.846944 7.823153 -6.876994
v 4.205573 4.237730 -8.649796
v -5.853286 -1.195384 -4.802955
v -5.942162 -2.443844 -1.133394
v -5.676824 3.752545 -2.081810
v -5.213280 5.341915 -3.999640
v 6.937029 -2.739121 0.705098
v 8.156733 -1.888912 -4.511805
v 6.032267 10.097198 -4.203076
v 5.923099 9.881448 -1.078609
v 1.224373 8.052691 -3.796002
v 1.218920 7.458253 -1.579825
v -2.795446 6.014892 -4.532992
v -3.423673 4.804238 -3.046170
v -3.050416 -1.267579 -4.872153
v -2.804190 -2.430235 0.256656
v 3.150078 -1.887532 -4.177036
v 3.336924 -2.875819 1.587507
v 9.596457 3.085797 -5.711133
v 8.091156 1.669210 -0.062030
v 7.574097 7.360493 -5.628644
v 7.485851 6.665056 -0.994648
v -6.371628 -0.174682 -0.958110
v -6.066828 1.524975 -5.140210
v -6.143005 1.658572 -1.357461
v -5.733890 3.753217 -4.925898
vn -0.9007 0.3899 -0.1917
vn -0.2003 0.5224 -0.8288
vn 0.8626 0.4165 0.2870
vn -0.4889 0.3504 0.7988
vn 0.0247 -0.9994 -0.0262
vn -0.3203 0.9129 0.2531
vn -0.4041 0.8426 0.3560
vn -0.5296 0.7872 0.3160
vn 0.0558 -0.9914 -0.1183
vn -0.0322 -0.9974 -0.0639
vn 0.0374 0.4950 0.8681
vn -0.3423 0.5051 0.7923
vn -0.1717 0.5733 -0.8011
vn -0.2610 0.5710 -0.7784
vn -0.1693 -0.0404 -0.9847
vn -0.2623 0.3730 -0.8900
vn -0.1238 0.0751 -0.9895
vn -0.1168 0.2961 -0.9480
vn -0.1175 -0.4660 0.8770
vn -0.2514 0.3286 0.9104
vn 0.3024 -0.4516 0.8394
vn 0.4895 0.1052 0.8656
vn -0.4882 -0.3107 0.8156
vn -0.5151 0.4590 0.7238
vn 0.9248 -0.3140 0.2148
vn 0.9779 0.0649 0.1985
vn 0.0543 -0.1993 -0.9784
vn -0.0565 0.2528 -0.9659
vn -0.9157 -0.0067 -0.4019
vn -0.8851 0.2145 -0.4131
vn -0.9524 0.1036 0.2867
vn -0.9904 0.1358 -0.0247
vn -0.9491 -0.1740 0.2626
vn -0.9866 -0.1303 -0.0984
vn 0.8903 0.4282 -0.1552
vn 0.9369 0.2842 0.2036
vn 0.9190 -0.3166 -0.2347
vn 0.9554 -0.2237 0.1929
vn -0.1040 -0.9684 -0.2268
vn -0.0532 -0.9801 -0.1914
vn -0.0525 -0.9472 -0.3162
vn 0.0494 -0.9630 -0.2648
vn -0.3676 0.8295 0.4206
vn -0.5123 0.8032 0.3039
vn -0.2669 0.9546 -0.1321
vn -0.4227 0.8973 0.1271
vn -0.0323 0.5185 0.8545
vn -0.0921 0.7834 0.6147
vn 0.0053 -0.9791 -0.2035
vn -0.0079 -0.9861 -0.1658
vn 0.7468 0.6089 -0.2673
vn 0.8910 0.4477 0.0753
vn -0.9049 0.3136 0.2877
vn -0.9660 0.2578 0.0194
vt 0.000000 0.000000
vt 1.000000 0.000000
vt 1.000000 1.000000
vt 0.000000 1.000000
s 1
usemtl roccia.005
f 56/1/1 36/2/1 4/3/1 19/4/1
f 31/1/2 12/2/2 8/3/2 21/4/2
f 52/1/3 40/2/3 6/3/3 23/4/3
f 27/1/4 16/2/4 2/3/4 18/4/4
f 48/1/5 37/2/5 5/3/5 14/4/5
f 44/1/6 35/2/6 2/3/6 16/4/6
f 40/1/7 42/2/7 15/3/7 6/4/7
f 42/1/8 44/2/8 16/3/8 15/4/8
f 34/1/9 46/2/9 13/3/9 1/4/9
f 46/1/10 48/2/10 14/3/10 13/4/10
f 23/1/11 6/2/11 15/3/11 25/4/11
f 25/1/12 15/2/12 16/3/12 27/4/12
f 19/1/13 4/2/13 11/3/13 29/4/13
f 29/1/14 11/2/14 12/3/14 31/4/14
f 10/1/15 30/2/15 32/3/15 9/4/15
f 30/1/16 29/2/16 31/3/16 32/4/16
f 3/1/17 20/2/17 30/3/17 10/4/17
f 20/1/18 19/2/18 29/3/18 30/4/18
f 14/1/19 26/2/19 28/3/19 13/4/19
f 26/1/20 25/2/20 27/3/20 28/4/20
f 5/1/21 24/2/21 26/3/21 14/4/21
f 24/1/22 23/2/22 25/3/22 26/4/22
f 13/1/23 28/2/23 17/3/23 1/4/23
f 28/1/24 27/2/24 18/3/24 17/4/24
f 37/1/25 50/2/25 24/3/25 5/4/25
f 50/1/26 52/2/26 23/3/26 24/4/26
f 9/1/27 32/2/27 22/3/27 7/4/27
f 32/1/28 31/2/28 21/3/28 22/4/28
f 33/1/29 54/2/29 20/3/29 3/4/29
f 54/1/30 56/2/30 19/3/30 20/4/30
f 17/1/31 18/2/31 55/3/31 53/4/31
f 53/1/32 55/2/32 56/3/32 54/4/32
f 1/1/33 17/2/33 53/3/33 34/4/33
f 34/1/34 53/2/34 54/3/34 33/4/34
f 22/1/35 21/2/35 51/3/35 49/4/35
f 49/1/36 51/2/36 52/3/36 50/4/36
f 7/1/37 22/2/37 49/3/37 38/4/37
f 38/1/38 49/2/38 50/3/38 37/4/38
f 10/1/39 9/2/39 47/3/39 45/4/39
f 45/1/40 47/2/40 48/3/40 46/4/40
f 3/1/41 10/2/41 45/3/41 33/4/41
f 33/1/42 45/2/42 46/3/42 34/4/42
f 12/1/43 11/2/43 43/3/43 41/4/43
f 41/1/44 43/2/44 44/3/44 42/4/44
f 8/1/45 12/2/45 41/3/45 39/4/45
f 39/1/46 41/2/46 42/3/46 40/4/46
f 11/1/47 4/2/47 36/3/47 43/4/47
f 43/1/48 36/2/48 35/3/48 44/4/48
f 9/1/49 7/2/49 38/3/49 47/4/49
f 47/1/50 38/2/50 37/3/50 48/4/50
f 21/1/51 8/2/51 39/3/51 51/4/51
f 51/1/52 39/2/52 40/3/52 52/4/52
f 18/1/53 2/2/53 35/3/53 55/4/53
f 55/1/54 35/2/54 36/3/54 56/4/54
