# Blender 4.1.1
# www.blender.org
mtllib roccia2.mtl
o BigRock3
v -2.590675 -2.399893 2.253184
v -4.029485 3.339538 1.934187
v -3.301224 -2.689013 -2.806461
v -4.224410 3.777558 -3.285599
v 2.968354 -2.372631 2.173697
v 1.266015 3.808504 1.676055
v 3.367288 -2.078867 -3.197718
v 0.671859 3.738719 -3.388346
v -5.306403 -2.739929 -2.321111
v -5.902279 -3.210578 -0.930503
v -4.382259 3.669281 0.032219
v -4.460951 3.751272 -1.652362
v 3.012736 -2.347654 -0.106959
v 3.373091 -2.219169 -1.692058
v 0.949140 3.827343 -1.568975
v 1.641483 3.848335 0.130592
v -3.423868 -0.604125 1.914286
v -4.085179 1.868187 1.656003
v -4.491456 1.697083 -3.330759
v -3.814580 -0.631605 -3.048910
v 1.820970 2.165047 -3.160095
v 2.608416 -0.615679 -2.857104
v 2.542587 2.083528 1.492749
v 2.866865 -0.624649 2.116237
v 3.305600 2.547987 -0.348438
v 2.520053 -0.133265 -0.113123
v -5.749028 1.771933 -0.650902
v -5.855927 -0.416597 -0.936527
v -5.732577 1.814539 -2.239770
v -5.260050 0.054052 -2.327135
v 0.705228 -3.026754 -4.606661
v -0.917231 -3.393811 -5.049883
v -2.254574 3.870448 -4.133481
v -0.703200 3.902815 -3.981522
v -0.926063 -2.434307 2.282023
v 0.928537 -2.379314 2.361164
v -0.795661 3.961824 1.791039
v -2.918957 3.456036 1.719762
v -2.583082 3.805849 0.518071
v -0.289533 4.071410 0.434370
v 1.781471 -2.513325 -1.028659
v -0.762306 -2.469468 -0.971901
v 1.629702 -2.389892 0.685050
v -0.893503 -2.369798 0.725464
v -4.480575 5.552980 -1.716763
v -1.828882 -0.869180 1.756444
v -0.465714 2.952089 2.189664
v -2.812046 2.231849 1.428058
v -0.722787 -1.008128 -5.458276
v 0.961324 -0.668030 -4.934565
v -0.361633 3.122666 -4.533814
v 1.296049 3.055063 -4.119027
v 2.605720 -0.416211 3.491432
v 2.585883 -2.153134 3.501924
v 0.925441 -2.173421 3.824311
v 2.122290 2.207046 3.007667
v -0.780519 -2.181251 3.837918
v 0.725405 -0.398937 3.713487
v -1.399829 -0.493972 3.512686
v -0.279048 2.373941 3.476635
v -1.555324 1.976314 3.552647
v -4.279205 5.525019 -3.142184
v -0.929485 5.608234 -3.419132
v 0.575739 5.440090 -3.251141
v -4.550307 5.434412 -0.449737
v 0.630123 5.569469 -1.478278
v 0.857218 5.448219 0.086408
v -0.967927 6.027734 -1.211518
v -0.948157 5.706942 0.224784
v -2.510386 5.576338 -3.448309
v -2.700932 5.962784 -1.252941
v -2.744154 5.665656 0.117315
v 4.847891 -0.621165 -2.692739
v 5.606762 -2.084352 -3.033353
v 5.612566 -2.224655 -1.527693
v 5.252211 -2.353139 0.057406
v 3.342929 3.718297 -3.240023
v 4.326560 3.774868 -1.444617
v 4.209850 3.914024 0.257874
v 4.774763 -0.085157 -1.607207
v 4.638045 -0.164518 0.064783
v 4.520394 1.784621 -2.904720
v 4.804342 1.635008 -1.549277
v 4.510634 1.858674 0.071067
vn -0.8076 0.3803 -0.4508
vn 0.5999 0.7721 -0.2100
vn 0.7118 0.6193 0.3315
vn 0.2173 -0.1980 0.9558
vn 0.0140 -0.9999 -0.0010
vn -0.1044 0.9714 0.2133
vn 0.2728 0.2182 -0.9370
vn -0.9986 -0.0526 -0.0005
vn 0.2785 -0.9604 0.0112
vn 0.1207 -0.9925 0.0172
vn 0.0659 -0.1156 -0.9911
vn -0.0785 -0.0200 0.9967
vn -0.8692 0.2443 0.4300
vn -0.8289 0.5581 0.0370
vn -0.9208 0.0144 -0.3897
vn -0.9747 -0.0702 -0.2124
vn -0.7188 -0.0713 0.6915
vn -0.7803 -0.0964 0.6179
vn 0.0141 0.9989 -0.0450
vn -0.1845 -0.2941 0.9378
vn 0.0044 -0.9957 -0.0927
vn 0.0044 -0.9957 -0.0928
vn 0.0034 -0.9968 -0.0802
vn 0.0034 -0.9968 -0.0800
vn 0.0636 0.2793 0.9581
vn 0.1272 0.1409 0.9818
vn 0.9879 0.1473 -0.0494
vn 0.9938 -0.0715 0.0848
vn 0.6150 0.0835 -0.7841
vn 0.8222 0.1014 -0.5602
vn -0.3423 -0.0809 -0.9361
vn -0.5886 -0.2027 -0.7826
vn -0.4541 0.0662 -0.8885
vn 0.2513 0.1881 -0.9495
vn -0.6573 -0.1552 -0.7375
vn 0.3106 -0.1745 -0.9344
vn 0.2212 0.9596 0.1741
vn -0.9029 -0.1640 0.3973
vn -0.9037 -0.3639 0.2258
vn 0.9734 0.0272 0.2274
vn 0.1415 -0.9863 -0.0852
vn -0.0114 -0.9979 0.0643
vn -0.0395 -0.9842 0.1724
vn 0.0600 -0.9828 0.1749
vn 0.9872 0.1255 -0.0988
vn -0.2961 0.1976 -0.9345
vn 0.1338 0.1366 0.9815
vn -0.0183 0.1678 0.9856
vn 0.1021 0.9914 0.0820
vn -0.1705 0.9781 0.1195
vn 0.0974 -0.9913 0.0887
vn 0.0081 -0.9999 -0.0148
vn 0.1923 0.1888 0.9630
vn -0.1860 0.0107 0.9825
vn -0.3119 -0.0297 -0.9496
vn 0.1439 0.6130 -0.7769
vn 0.1642 0.1749 0.9708
vn -0.0408 0.0285 0.9988
vn 0.1518 0.0419 0.9875
vn -0.0515 0.1128 0.9923
vn 0.0285 -0.9876 0.1544
vn 0.0147 -0.9886 0.1496
vn -0.3364 0.8721 0.3554
vn 0.9605 0.1881 0.2049
vn -0.1223 0.9845 -0.1259
vn -0.2139 0.9663 0.1432
vn 0.2187 0.9678 0.1246
vn -0.0384 0.9760 0.2146
vn 0.1919 0.9721 -0.1348
vn -0.0249 0.9831 -0.1812
vn 0.0470 0.3489 -0.9360
vn -0.9898 -0.0176 -0.1417
vn -0.2934 0.2009 0.9346
vn 0.9186 0.3067 -0.2493
vn 0.8769 0.3369 -0.3428
vn 0.9793 0.1747 0.1019
vn 0.9346 0.3162 0.1628
vn 0.9914 0.0237 0.1286
vn 0.9125 0.4072 -0.0385
vn 0.9930 0.0681 -0.0965
vn -0.1617 0.0705 0.9843
vn -0.0002 0.9989 -0.0470
vn 0.0780 -0.0819 -0.9936
vn 0.0713 0.2611 -0.9627
vt 0.000000 0.000000
vt 1.000000 0.000000
vt 1.000000 1.000000
vt 0.000000 1.000000
s 1
usemtl roccia.006
f 29/1/1 12/2/1 4/3/1 19/4/1
f 52/1/2 34/2/2 8/3/2 21/4/2
f 25/1/3 16/2/3 6/3/3 23/4/3
f 48/1/4 38/2/4 2/3/4 18/4/4
f 43/1/5 13/2/5 5/3/5 36/4/5
f 39/1/6 11/2/6 2/3/6 38/4/6
f 8/1/7 34/2/7 63/3/7 64/4/7
f 12/1/8 11/2/8 65/3/8 45/4/8
f 31/1/9 7/2/9 14/3/9 41/4/9
f 41/1/10 14/2/10 13/3/10 43/4/10
f 21/1/11 8/2/11 77/3/11 82/4/11
f 26/1/12 13/2/12 76/3/12 81/4/12
f 18/1/13 2/2/13 11/3/13 27/4/13
f 27/1/14 11/2/14 12/3/14 29/4/14
f 10/1/15 28/2/15 30/3/15 9/4/15
f 28/1/16 27/2/16 29/3/16 30/4/16
f 1/1/17 17/2/17 28/3/17 10/4/17
f 17/1/18 18/2/18 27/3/18 28/4/18
f 8/1/19 15/2/19 78/3/19 77/4/19
f 16/1/20 25/2/20 84/3/20 79/4/20
f 14/1/21 7/2/22 74/3/22 75/4/23
f 13/1/24 14/2/21 75/3/23 76/4/24
f 35/1/25 46/2/25 17/3/25 1/4/25
f 46/1/26 48/2/26 18/3/26 17/4/26
f 13/1/27 26/2/27 24/3/27 5/4/27
f 26/1/28 25/2/28 23/3/28 24/4/28
f 31/1/29 50/2/29 22/3/29 7/4/29
f 50/1/30 52/2/30 21/3/30 22/4/30
f 9/1/31 30/2/31 20/3/31 3/4/31
f 30/1/32 29/2/32 19/3/32 20/4/32
f 20/1/33 19/2/33 51/3/33 49/4/33
f 49/1/34 51/2/34 52/3/34 50/4/34
f 3/1/35 20/2/35 49/3/35 32/4/35
f 32/1/36 49/2/36 50/3/36 31/4/36
f 23/1/37 47/2/37 60/3/37 56/4/37
f 48/1/38 46/2/38 59/3/38 61/4/38
f 46/1/39 35/2/39 57/3/39 59/4/39
f 5/1/40 24/2/40 53/3/40 54/4/40
f 9/1/41 42/2/41 44/3/41 10/4/41
f 42/1/42 41/2/42 43/3/42 44/4/42
f 3/1/43 32/2/43 42/3/43 9/4/43
f 32/1/44 31/2/44 41/3/44 42/4/44
f 15/1/45 8/2/45 64/3/45 66/4/45
f 33/1/46 4/2/46 62/3/46 70/4/46
f 40/1/47 16/2/47 67/3/47 69/4/47
f 39/1/48 40/2/48 69/3/48 72/4/48
f 16/1/49 40/2/49 37/3/49 6/4/49
f 40/1/50 39/2/50 38/3/50 37/4/50
f 10/1/51 44/2/51 35/3/51 1/4/51
f 44/1/52 43/2/52 36/3/52 35/4/52
f 23/1/53 6/2/53 37/3/53 47/4/53
f 47/1/54 37/2/54 38/3/54 48/4/54
f 19/1/55 4/2/55 33/3/55 51/4/55
f 51/1/56 33/2/56 34/3/56 52/4/56
f 53/1/57 56/2/57 60/3/57 58/4/57
f 58/1/58 60/2/58 61/3/58 59/4/58
f 54/1/59 53/2/59 58/3/59 55/4/59
f 55/1/60 58/2/60 59/3/60 57/4/60
f 36/1/61 5/2/61 54/3/61 55/4/61
f 35/1/62 36/2/62 55/3/62 57/4/62
f 47/1/63 48/2/63 61/3/63 60/4/63
f 24/1/64 23/2/64 56/3/64 53/4/64
f 70/1/65 62/2/65 45/3/65 71/4/65
f 71/1/66 45/2/66 65/3/66 72/4/66
f 66/1/67 68/2/67 69/3/67 67/4/67
f 68/1/68 71/2/68 72/3/68 69/4/68
f 64/1/69 63/2/69 68/3/69 66/4/69
f 63/1/70 70/2/70 71/3/70 68/4/70
f 34/1/71 33/2/71 70/3/71 63/4/71
f 4/1/72 12/2/72 45/3/72 62/4/72
f 11/1/73 39/2/73 72/3/73 65/4/73
f 16/1/74 15/2/74 66/3/74 67/4/74
f 82/1/75 77/2/75 78/3/75 83/4/75
f 83/1/76 78/2/76 79/3/76 84/4/76
f 75/1/77 80/2/77 81/3/77 76/4/77
f 80/1/78 83/2/78 84/3/78 81/4/78
f 74/1/79 73/2/79 80/3/79 75/4/79
f 73/1/80 82/2/80 83/3/80 80/4/80
f 25/1/81 26/2/81 81/3/81 84/4/81
f 15/1/82 16/2/82 79/3/82 78/4/82
f 22/1/83 21/2/83 82/3/83 73/4/83
f 7/1/84 22/2/84 73/3/84 74/4/84
