# Blender 4.1.1
# www.blender.org
mtllib roccia3.mtl
o Rock_25
v -1.804816 -1.096009 1.573756
v -1.039003 2.032436 1.369660
v -1.601483 -1.196016 -1.615888
v -1.395203 2.581767 -1.368600
v 1.833871 -1.418535 1.834651
v 1.445122 2.427931 1.660700
v 1.554088 -1.185457 -2.040962
v 1.337788 2.541399 -1.623901
v -0.000033 -1.418626 -1.834012
v 0.185221 2.443312 -1.642865
v -0.003469 -1.417549 1.842908
v 0.000000 2.249544 1.834084
v -1.848929 0.429585 1.779705
v -0.994896 0.530082 -1.461653
v 1.541819 0.610941 -1.293791
v 1.718269 0.511516 1.748836
v 0.521571 0.190511 2.133719
v 0.085714 0.508815 -1.455324
v -1.835351 -1.418200 0.003254
v -1.834084 2.249543 -0.000000
v 1.834084 -1.418625 0.000001
v 1.834084 2.249543 -0.000000
v 0.182187 2.498910 0.574175
v 0.000000 -1.418625 0.000000
v 1.451224 0.538765 -0.077173
v -1.835216 0.415683 0.002746
v -1.359905 -0.313403 -1.381570
v 1.484767 -0.267380 -1.507212
v 1.712831 -0.433517 1.951257
v 0.199490 -0.594665 2.140048
v -0.020386 -0.434877 -1.484472
v -1.915335 -0.253616 1.407692
v -1.897422 -0.481615 0.160032
v 1.579036 -0.419871 0.121388
v -1.643312 2.375247 -0.655071
v 1.694086 -1.302041 -1.020480
v -1.415056 0.472882 -0.729453
v -1.718417 -1.307108 -0.806317
v 1.642912 2.475107 -0.871111
v 0.205978 2.574747 -0.441748
v -0.000016 -1.418625 -0.917006
v 1.496522 0.574853 -0.685482
v 1.531901 -0.343625 -0.692912
v -1.628663 -0.397509 -0.610769
vn -0.8920 -0.1234 -0.4348
vn 0.0784 -0.1303 -0.9884
vn 0.9989 -0.0301 0.0362
vn -0.2273 0.2025 0.9525
vn -0.0003 -1.0000 0.0003
vn -0.2198 0.9504 0.2198
vn 0.0302 0.9991 0.0302
vn -0.0947 -0.9910 0.0946
vn 0.1811 0.1313 0.9747
vn -0.1020 -0.0313 -0.9943
vn -0.0409 -0.0177 -0.9990
vn 0.1925 0.0815 0.9779
vn -0.2527 -0.1703 0.9524
vn 0.9933 0.0410 -0.1084
vn 0.0347 0.1288 -0.9911
vn -0.8878 0.2553 -0.3829
vn -0.9964 0.0834 -0.0171
vn 0.9962 0.0872 0.0056
vn -0.0335 -0.9972 -0.0664
vn 0.1566 0.9774 0.1422
vn -0.1351 0.9856 0.1015
vn 0.0311 -0.9976 -0.0623
vn 0.9814 -0.1475 -0.1229
vn -0.9356 0.2507 0.2485
vn 0.9716 0.2244 -0.0755
vn -0.9951 -0.0964 0.0233
vn -0.9526 0.2252 -0.2047
vn -0.1219 0.4134 -0.9024
vn 0.9811 0.1902 -0.0351
vn -0.2571 -0.0616 0.9644
vn 0.0679 -0.2255 0.9719
vn -0.0680 0.3052 -0.9499
vn -0.9715 0.0584 -0.2299
vn 0.9836 0.1597 -0.0835
vn 0.9821 -0.0106 -0.1883
vn 0.1005 -0.9927 -0.0670
vn -0.0171 0.9992 0.0372
vn -0.0046 0.9995 -0.0326
vn -0.1069 -0.9917 -0.0710
vn 0.9999 -0.0118 -0.0022
vn -0.9090 0.0779 -0.4093
vn -0.9118 -0.0476 -0.4078
vt 0.000000 0.000000
vt 1.000000 0.000000
vt 1.000000 1.000000
vt 0.000000 1.000000
s 1
usemtl roccia.007
f 37/1/1 35/2/1 4/3/1 14/4/1
f 18/1/2 10/2/2 8/3/2 15/4/2
f 25/1/3 22/2/3 6/3/3 16/4/3
f 17/1/4 12/2/4 2/3/4 13/4/4
f 24/1/5 21/2/5 5/3/5 11/4/5
f 23/1/6 20/2/6 2/3/6 12/4/6
f 22/1/7 23/2/7 12/3/7 6/4/7
f 19/1/8 24/2/8 11/3/8 1/4/8
f 16/1/9 6/2/9 12/3/9 17/4/9
f 14/1/10 4/2/10 10/3/10 18/4/10
f 27/1/11 14/2/11 18/3/11 31/4/11
f 29/1/12 16/2/12 17/3/12 30/4/12
f 30/1/13 17/2/13 13/3/13 32/4/13
f 34/1/14 25/2/14 16/3/14 29/4/14
f 31/1/15 18/2/15 15/3/15 28/4/15
f 44/1/16 37/2/16 14/3/16 27/4/16
f 32/1/17 13/2/17 26/3/17 33/4/17
f 43/1/18 42/2/18 25/3/18 34/4/18
f 38/1/19 41/2/19 24/3/19 19/4/19
f 39/1/20 40/2/20 23/3/20 22/4/20
f 40/1/21 35/2/21 20/3/21 23/4/21
f 41/1/22 36/2/22 21/3/22 24/4/22
f 42/1/23 39/2/23 22/3/23 25/4/23
f 13/1/24 2/2/24 20/3/24 26/4/24
f 36/1/25 43/2/25 34/3/25 21/4/25
f 1/1/26 32/2/26 33/3/26 19/4/26
f 38/1/27 44/2/27 27/3/27 3/4/27
f 9/1/28 31/2/28 28/3/28 7/4/28
f 21/1/29 34/2/29 29/3/29 5/4/29
f 11/1/30 30/2/30 32/3/30 1/4/30
f 5/1/31 29/2/31 30/3/31 11/4/31
f 3/1/32 27/2/32 31/3/32 9/4/32
f 19/1/33 33/2/33 44/3/33 38/4/33
f 7/1/34 28/2/34 43/3/34 36/4/34
f 15/1/35 8/2/35 39/3/35 42/4/35
f 9/1/36 7/2/36 36/3/36 41/4/36
f 10/1/37 4/2/37 35/3/37 40/4/37
f 8/1/38 10/2/38 40/3/38 39/4/38
f 3/1/39 9/2/39 41/3/39 38/4/39
f 28/1/40 15/2/40 42/3/40 43/4/40
f 33/1/41 26/2/41 37/3/41 44/4/41
f 26/1/42 20/2/42 35/3/42 37/4/42
