# Blender 4.1.1
# www.blender.org
mtllib roccia6.mtl
o Rock_10
v -1.000002 -1.125774 1.000002
v -0.947064 0.858592 0.943327
v -1.373007 -1.414694 -1.179958
v -1.160592 0.604733 -0.906102
v 0.724439 -1.065853 0.573053
v 1.000000 0.874229 1.000000
v 0.477286 -1.286183 -0.883646
v 0.783091 0.753344 -0.989345
v -1.147495 -1.343916 0.149888
v -1.012654 0.910746 -0.064188
v 0.993759 -1.135991 -0.010442
v 1.028909 0.930621 0.031835
v -0.514421 -1.479454 -1.246307
v -0.406360 0.575072 -1.395790
v -0.001738 -1.128616 0.997093
v -0.008995 0.857680 1.004047
v 0.418975 1.254030 0.257945
v 0.000000 -1.125771 0.000000
v -1.650937 -0.061618 1.166879
v -1.844739 -0.239176 -1.114368
v 1.002073 -0.125153 -1.002237
v 0.950269 -0.169862 0.937309
v 1.491266 -0.182309 0.143433
v -1.972373 -0.355401 0.225388
v 0.204133 -0.246596 1.349103
v 0.244353 -0.448839 -1.428274
vn -0.7889 0.6128 -0.0460
vn 0.3469 0.1806 -0.9203
vn 0.9336 0.1855 0.3066
vn -0.0643 0.2843 0.9566
vn 0.0431 -0.9978 0.0499
vn -0.1730 0.9622 0.2103
vn -0.1582 0.9380 -0.3085
vn 0.0535 -0.9770 0.2063
vn 0.9006 0.2922 -0.3217
vn -0.7842 0.6154 0.0794
vn 0.0902 -0.9865 0.1366
vn 0.1096 0.9331 -0.3426
vn 0.2189 0.9274 0.3033
vn 0.1068 -0.9885 0.1068
vn 0.2209 0.1436 0.9647
vn -0.2597 0.1280 -0.9572
vn -0.1311 -0.0352 -0.9907
vn 0.4769 -0.4256 0.7690
vn -0.7380 -0.5727 0.3568
vn 0.8296 -0.3945 -0.3951
vn -0.0783 -0.2735 0.9587
vn 0.7654 -0.4327 0.4763
vn 0.4715 -0.3849 -0.7934
vn -0.8569 -0.5149 0.0227
vt 0.000000 0.000000
vt 1.000000 0.000000
vt 1.000000 1.000000
vt 0.000000 1.000000
s 1
usemtl roccia
f 24/1/1 10/2/1 4/3/1 20/4/1
f 26/1/2 14/2/2 8/3/2 21/4/2
f 23/1/3 12/2/3 6/3/3 22/4/3
f 25/1/4 16/2/4 2/3/4 19/4/4
f 18/1/5 11/2/5 5/3/5 15/4/5
f 17/1/6 10/2/6 2/3/6 16/4/6
f 14/1/7 4/2/7 10/3/7 17/4/7
f 13/1/8 7/2/8 11/3/8 18/4/8
f 21/1/9 8/2/9 12/3/9 23/4/9
f 19/1/10 2/2/10 10/3/10 24/4/10
f 3/1/11 13/2/11 18/3/11 9/4/11
f 8/1/12 14/2/12 17/3/12 12/4/12
f 12/1/13 17/2/13 16/3/13 6/4/13
f 9/1/14 18/2/14 15/3/14 1/4/14
f 22/1/15 6/2/15 16/3/15 25/4/15
f 20/1/16 4/2/16 14/3/16 26/4/16
f 3/1/17 20/2/17 26/3/17 13/4/17
f 5/1/18 22/2/18 25/3/18 15/4/18
f 1/1/19 19/2/19 24/3/19 9/4/19
f 7/1/20 21/2/20 23/3/20 11/4/20
f 15/1/21 25/2/21 19/3/21 1/4/21
f 11/1/22 23/2/22 22/3/22 5/4/22
f 13/1/23 26/2/23 21/3/23 7/4/23
f 9/1/24 24/2/24 20/3/24 3/4/24
