# Blender 4.1.1
# www.blender.org
mtllib albero4.mtl
o DeadOak1
v -0.049034 0.031338 0.668713
v 0.027207 1.461963 0.293526
v -0.049034 0.031338 -0.668713
v 0.326153 1.461963 -0.592472
v 1.288392 0.031338 0.668713
v 0.913205 1.461963 0.592472
v 1.288392 0.031338 -0.668713
v 1.212151 1.461963 -0.293526
v -0.460641 2.785781 0.398047
v -0.067014 2.740144 -0.737056
v 1.823985 3.071614 -0.396896
v 1.812190 3.076279 0.376437
v 1.376784 1.943838 -0.281697
v 1.088247 1.943838 0.632504
v -0.027547 2.221336 0.280342
v 0.272136 2.214747 -0.647793
v 0.639928 2.815258 -0.515190
v 0.251300 2.856514 0.619295
v -0.650736 3.560429 0.354799
v -0.596590 3.488445 -0.682692
v -0.092744 3.556434 0.344708
v -0.021951 3.495724 -0.720011
v 0.810124 3.010491 -0.478362
v 0.777052 3.039219 0.364154
v 2.174220 4.312064 -0.601772
v 2.653895 4.422156 -0.401183
v 2.548139 4.407677 0.191835
v 2.035245 4.310879 0.271649
v 2.814896 6.246448 -0.572265
v 2.989049 6.227424 -0.503237
v 2.863728 6.189565 -0.057494
v 2.674447 6.206420 -0.114331
v 2.226079 4.774118 0.167776
v 2.398480 4.788036 -0.628178
v 2.729271 4.689766 -0.410763
v 2.614699 4.672326 0.136615
v 2.639874 4.323212 -0.504899
v 2.508127 4.305930 0.314380
v 2.615288 4.765115 0.224676
v 2.776785 4.790638 -0.525121
v 3.536363 4.664198 -0.195994
v 3.505711 4.650399 0.161085
v 3.485953 4.823172 0.135634
v 3.520619 4.838778 -0.188553
v 4.139318 5.176759 -0.107015
v 4.133493 5.174136 0.103050
v 4.067635 5.248410 0.090511
v 4.075984 5.252169 -0.099798
v -0.031686 5.127752 -0.010856
v 0.026226 5.098475 -0.655997
v 0.333363 5.158929 -0.030765
v 0.400905 5.137854 -0.680790
v 0.095973 3.983496 -0.757174
v 0.003999 4.027151 0.222232
v -0.481349 4.026064 0.231489
v -0.411342 3.964631 -0.723205
v -1.458830 4.136802 0.119683
v -1.458939 4.098158 -0.381072
v -1.385634 4.366945 0.064530
v -1.395465 4.328529 -0.372795
v -2.161864 5.118141 0.072548
v -2.171551 5.106203 -0.154906
v -2.072394 5.197964 0.048796
v -2.082455 5.186407 -0.148710
v -0.060532 0.746650 0.524672
v 0.095007 0.746650 -0.680211
v 1.299890 0.746650 -0.524672
v 1.144351 0.746651 0.680211
vn -0.9588 0.1928 -0.2084
vn 0.2084 0.1928 -0.9588
vn 0.9588 0.1928 0.2084
vn -0.2084 0.1928 0.9588
vn -0.0000 -1.0000 -0.0000
vn 0.8870 -0.4335 0.1591
vn 0.8539 -0.5153 0.0729
vn -0.7926 -0.5551 -0.2523
vn -0.0756 0.0116 0.9971
vn 0.2112 -0.0539 -0.9760
vn 0.3088 -0.0611 -0.9492
vn -0.3081 0.0093 0.9513
vn -0.9465 -0.0822 -0.3120
vn 0.8968 -0.3318 0.2927
vn 0.9604 -0.2584 0.1043
vn -0.8928 -0.4207 -0.1612
vn 0.7781 0.6136 0.1341
vn 0.1416 0.0139 -0.9898
vn -0.1698 0.1485 0.9742
vn -0.9386 0.2634 -0.2229
vn -0.5057 0.8516 -0.1380
vn -0.7015 0.7080 -0.0817
vn 0.1268 -0.1964 -0.9723
vn -0.0382 0.0914 0.9951
vn 0.0621 0.9927 0.1038
vn 0.9651 -0.1350 0.2244
vn -0.1776 0.2322 0.9563
vn 0.2961 -0.0387 -0.9544
vn 0.2305 -0.1359 -0.9635
vn -0.1077 0.2374 0.9654
vn -0.1784 0.9839 0.0068
vn -0.9102 0.3792 -0.1663
vn 0.9574 -0.2432 0.1555
vn 0.9651 -0.1971 0.1723
vn 0.9523 -0.2692 0.1439
vn 0.9575 -0.2111 0.1968
vn 0.0844 0.0849 -0.9928
vn -0.0225 0.1836 0.9827
vn 0.2558 -0.0392 -0.9659
vn 0.2541 -0.9672 0.0077
vn 0.7558 0.6537 0.0372
vn 0.6437 -0.7650 0.0192
vn -0.5930 0.8050 -0.0193
vn -0.0275 0.1426 0.9894
vn -0.0977 0.9941 -0.0481
vn 0.0256 0.2079 0.9778
vn -0.0719 0.0857 -0.9937
vn -0.9278 0.3608 -0.0946
vn 0.3447 0.9372 -0.0523
vn -0.0642 -0.0601 -0.9961
vn 0.0187 0.2489 0.9684
vn 0.9751 -0.2037 0.0880
vn 0.7691 0.6348 -0.0741
vn -0.0787 0.2733 0.9587
vn -0.3026 0.0631 -0.9510
vn -0.5775 -0.8155 0.0384
vn -0.6679 0.7442 -0.0101
vn 0.1656 0.1608 0.9730
vn -0.1538 0.1213 -0.9806
vn -0.8115 -0.5821 0.0513
vn -0.0608 0.0855 0.9945
vn 0.9945 0.0855 0.0608
vn 0.0608 0.0855 -0.9945
vn -0.9945 0.0855 -0.0608
vt 0.000000 0.000000
vt 1.000000 0.000000
vt 1.000000 1.000000
vt 0.000000 1.000000
vt 0.500000 1.000000
vt 0.933013 0.750000
vt 0.933013 0.250000
vt 0.500000 0.000000
vt 0.066987 0.250000
vt 0.066987 0.750000
s 1
usemtl tronco.007
f 65/1/1 2/2/1 4/3/1 66/4/1
f 66/1/2 4/2/2 8/3/2 67/4/2
f 67/1/3 8/2/3 6/3/3 68/4/3
f 68/1/4 6/2/4 2/3/4 65/4/4
f 3/1/5 7/2/5 5/3/5 1/4/5
f 14/1/6 13/2/6 11/3/6 12/4/6
f 12/1/7 11/2/7 37/3/7 38/4/7
f 16/1/8 15/2/8 9/3/8 10/4/8
f 15/5/9 14/6/9 12/7/9 24/8/9 18/9/9 9/10/9
f 13/5/10 16/6/10 10/7/10 17/8/10 23/9/10 11/10/10
f 8/1/11 4/2/11 16/3/11 13/4/11
f 2/1/12 6/2/12 14/3/12 15/4/12
f 4/1/13 2/2/13 15/3/13 16/4/13
f 6/1/14 8/2/14 13/3/14 14/4/14
f 54/1/15 53/2/15 52/3/15 51/4/15
f 10/1/16 9/2/16 19/3/16 20/4/16
f 18/1/17 17/2/17 22/3/17 21/4/17
f 17/1/18 10/2/18 20/3/18 22/4/18
f 9/1/19 18/2/19 21/3/19 19/4/19
f 34/1/20 33/2/20 32/3/20 29/4/20
f 24/1/21 23/2/21 17/3/21 18/4/21
f 23/1/22 24/2/22 28/3/22 25/4/22
f 11/1/23 23/2/23 25/3/23 37/4/23
f 24/1/24 12/2/24 38/3/24 28/4/24
f 30/1/25 29/2/25 32/3/25 31/4/25
f 39/1/26 40/2/26 30/3/26 31/4/26
f 33/1/27 39/2/27 31/3/27 32/4/27
f 40/1/28 34/2/28 29/3/28 30/4/28
f 37/1/29 25/2/29 34/3/29 40/4/29
f 28/1/30 38/2/30 39/3/30 33/4/30
f 35/1/31 36/2/31 43/3/31 44/4/31
f 25/1/32 28/2/32 33/3/32 34/4/32
f 26/1/33 27/2/33 38/3/33 37/4/33
f 27/1/34 36/2/34 39/3/34 38/4/34
f 35/1/35 26/2/35 37/3/35 40/4/35
f 36/1/36 35/2/36 40/3/36 39/4/36
f 41/1/37 44/2/37 48/3/37 45/4/37
f 36/1/38 27/2/38 42/3/38 43/4/38
f 26/1/39 35/2/39 44/3/39 41/4/39
f 27/1/40 26/2/40 41/3/40 42/4/40
f 46/1/41 45/2/41 48/3/41 47/4/41
f 42/1/42 41/2/42 45/3/42 46/4/42
f 44/1/43 43/2/43 47/3/43 48/4/43
f 43/1/44 42/2/44 46/3/44 47/4/44
f 51/1/45 52/2/45 50/3/45 49/4/45
f 55/1/46 54/2/46 51/3/46 49/4/46
f 53/1/47 56/2/47 50/3/47 52/4/47
f 56/1/48 55/2/48 49/3/48 50/4/48
f 55/1/49 56/2/49 60/3/49 59/4/49
f 22/1/50 20/2/50 56/3/50 53/4/50
f 19/1/51 21/2/51 54/3/51 55/4/51
f 21/1/52 22/2/52 53/3/52 54/4/52
f 59/1/53 60/2/53 64/3/53 63/4/53
f 19/1/54 55/2/54 59/3/54 57/4/54
f 56/1/55 20/2/55 58/3/55 60/4/55
f 20/1/56 19/2/56 57/3/56 58/4/56
f 62/1/57 61/2/57 63/3/57 64/4/57
f 57/1/58 59/2/58 63/3/58 61/4/58
f 60/1/59 58/2/59 62/3/59 64/4/59
f 58/1/60 57/2/60 61/3/60 62/4/60
f 5/1/61 68/2/61 65/3/61 1/4/61
f 7/1/62 67/2/62 68/3/62 5/4/62
f 3/1/63 66/2/63 67/3/63 7/4/63
f 1/1/64 65/2/64 66/3/64 3/4/64
